<svg width="457" height="457" viewBox="0 0 457 457" fill="none" xmlns="http://www.w3.org/2000/svg">
<mask id="mask0_20_118" style="mask-type:alpha" maskUnits="userSpaceOnUse" x="0" y="0" width="457" height="457">
<rect width="457" height="457" fill="#D9D9D9"/>
</mask>
<g mask="url(#mask0_20_118)">
<mask id="path-2-inside-1_20_118" fill="white">
<path fill-rule="evenodd" clip-rule="evenodd" d="M201.879 68.9122C218.183 51.2311 247.323 44.7434 275.382 54.6329C304.461 64.882 323.415 89.5611 323.795 114.463C344.046 113.026 366.373 122.38 382.425 141.118C407.068 169.885 407.589 209.873 383.587 230.434C373.364 239.191 358.886 244.256 343.729 244.964C355.864 278.241 357.936 312.935 348.618 339.372C327.04 400.592 241.351 426.185 157.224 396.534C73.0978 366.884 22.3914 293.218 43.9683 231.998C53.4026 205.23 77.2388 179.188 108.111 160.834C97.7637 151.045 90.4343 138.76 88.104 126.29C82.2989 95.2242 107.777 64.3996 145.011 57.4415C166.444 53.4363 187.1 58.2124 201.879 68.9122Z"/>
</mask>
<path fill-rule="evenodd" clip-rule="evenodd" d="M201.879 68.9122C218.183 51.2311 247.323 44.7434 275.382 54.6329C304.461 64.882 323.415 89.5611 323.795 114.463C344.046 113.026 366.373 122.38 382.425 141.118C407.068 169.885 407.589 209.873 383.587 230.434C373.364 239.191 358.886 244.256 343.729 244.964C355.864 278.241 357.936 312.935 348.618 339.372C327.04 400.592 241.351 426.185 157.224 396.534C73.0978 366.884 22.3914 293.218 43.9683 231.998C53.4026 205.23 77.2388 179.188 108.111 160.834C97.7637 151.045 90.4343 138.76 88.104 126.29C82.2989 95.2242 107.777 64.3996 145.011 57.4415C166.444 53.4363 187.1 58.2124 201.879 68.9122Z" fill="#9BF38F"/>
<path d="M201.879 68.9122L196.015 77.0123C200.119 79.9833 205.796 79.4158 209.231 75.6911L201.879 68.9122ZM275.382 54.6329L278.706 45.2015L278.706 45.2015L275.382 54.6329ZM323.795 114.463L313.797 114.616C313.839 117.364 315.01 119.974 317.035 121.832C319.061 123.69 321.762 124.632 324.503 124.438L323.795 114.463ZM382.425 141.118L390.02 134.612L390.02 134.612L382.425 141.118ZM383.587 230.434L390.093 238.028L390.093 238.028L383.587 230.434ZM343.729 244.964L343.263 234.975C340.085 235.123 337.167 236.775 335.404 239.423C333.642 242.072 333.244 245.401 334.334 248.39L343.729 244.964ZM348.618 339.372L358.049 342.696L358.049 342.696L348.618 339.372ZM157.224 396.534L153.9 405.966H153.9L157.224 396.534ZM43.9683 231.998L34.5369 228.674L34.5369 228.674L43.9683 231.998ZM108.111 160.834L113.221 169.43C115.916 167.828 117.703 165.054 118.05 161.938C118.396 158.823 117.261 155.725 114.983 153.57L108.111 160.834ZM88.104 126.29L78.2742 128.127L78.2742 128.127L88.104 126.29ZM145.011 57.4415L143.174 47.6116L143.174 47.6116L145.011 57.4415ZM201.879 68.9122L209.231 75.6911C222.367 61.4457 247.085 55.2625 272.058 64.0642L275.382 54.6329L278.706 45.2015C247.561 34.2244 214 41.0165 194.528 62.1333L201.879 68.9122ZM275.382 54.6329L272.058 64.0642C297.973 73.1982 313.492 94.6725 313.797 114.616L323.795 114.463L333.794 114.31C333.338 84.4497 310.949 56.5657 278.706 45.2015L275.382 54.6329ZM323.795 114.463L324.503 124.438C341.262 123.249 360.615 131.029 374.831 147.624L382.425 141.118L390.02 134.612C372.132 113.731 346.829 102.803 323.088 104.488L323.795 114.463ZM382.425 141.118L374.831 147.624C397.034 173.543 395.659 206.925 377.082 222.839L383.587 230.434L390.093 238.028C419.519 212.821 417.103 166.228 390.02 134.612L382.425 141.118ZM383.587 230.434L377.082 222.839C368.869 229.874 356.659 234.349 343.263 234.975L343.729 244.964L344.195 254.953C361.114 254.163 377.859 248.509 390.093 238.028L383.587 230.434ZM343.729 244.964L334.334 248.39C345.926 280.177 347.521 312.4 339.186 336.048L348.618 339.372L358.049 342.696C368.35 313.469 365.802 276.305 353.124 241.538L343.729 244.964ZM348.618 339.372L339.186 336.048C329.722 362.9 305.927 382.768 273.515 392.448C241.115 402.125 200.833 401.301 160.548 387.103L157.224 396.534L153.9 405.966C197.741 421.418 242.368 422.623 279.238 411.611C316.098 400.603 345.936 377.065 358.049 342.696L348.618 339.372ZM157.224 396.534L160.548 387.103C120.263 372.904 88.3675 348.289 69.1947 320.435C50.0153 292.571 43.9358 262.174 53.3996 235.322L43.9683 231.998L34.5369 228.674C22.4239 263.043 30.9091 300.088 52.7203 331.775C74.5381 363.471 110.059 390.514 153.9 405.966L157.224 396.534ZM43.9683 231.998L53.3996 235.322C61.8402 211.374 83.7252 186.966 113.221 169.43L108.111 160.834L103 152.238C70.7524 171.411 44.965 199.087 34.5369 228.674L43.9683 231.998ZM108.111 160.834L114.983 153.57C105.857 144.935 99.8037 134.459 97.9338 124.453L88.104 126.29L78.2742 128.127C81.0648 143.06 89.6707 157.154 101.238 168.098L108.111 160.834ZM88.104 126.29L97.9339 124.453C93.4407 100.408 113.301 73.5405 146.848 67.2713L145.011 57.4415L143.174 47.6116C102.253 55.2587 71.1571 90.0402 78.2742 128.127L88.104 126.29ZM145.011 57.4415L146.848 67.2713C165.794 63.731 183.623 68.0408 196.015 77.0123L201.879 68.9122L207.744 60.8121C190.577 48.3841 167.094 43.1417 143.174 47.6116L145.011 57.4415Z" fill="black" mask="url(#path-2-inside-1_20_118)"/>
<ellipse cx="166.007" cy="196.854" rx="11.8804" ry="14.3752" transform="rotate(20.6809 166.007 196.854)" fill="black"/>
<ellipse cx="213.575" cy="212.094" rx="11.8804" ry="14.3752" transform="rotate(20.6809 213.575 212.094)" fill="black"/>
<path d="M173.513 237.06C172.416 246.926 174.73 258.444 187.213 263.811C199.696 269.177 209.445 262.846 215.652 255.176" stroke="black" stroke-width="10" stroke-linecap="round"/>
<path d="M130.968 217.546C129.87 227.413 132.184 238.931 144.667 244.298C157.151 249.664 166.9 243.333 173.107 235.663" stroke="black" stroke-width="10" stroke-linecap="round"/>
<path d="M309.348 206.283C328.57 199.5 352.133 207.743 373.63 224.38C394.951 240.882 412.803 264.6 420.297 285.836C435.152 327.931 413.99 373.512 373.414 387.83C332.839 402.149 287.756 379.946 272.901 337.851C265.407 316.615 264.419 286.945 270.662 260.717C276.955 234.272 290.126 213.067 309.348 206.283Z" fill="#68CD5F" stroke="black" stroke-width="10"/>
</g>
</svg>
